<mxfile host="app.diagrams.net" modified="2024-07-22T10:38:15.054Z" agent="Mozilla/5.0 (Windows NT 10.0; Win64; x64) AppleWebKit/537.36 (KHTML, like Gecko) Chrome/126.0.0.0 Safari/537.36" etag="mnySruWzCOLCGBtyeEGT" version="24.7.1" type="device">
  <diagram name="Page-1" id="JTJxpbjh7hMh_A6eISET">
    <mxGraphModel dx="1500" dy="1915" grid="1" gridSize="10" guides="1" tooltips="1" connect="1" arrows="1" fold="1" page="1" pageScale="1" pageWidth="827" pageHeight="1169" math="0" shadow="0">
      <root>
        <mxCell id="0" />
        <mxCell id="1" parent="0" />
        <mxCell id="-0Hpn8DzHwPfNXD8N3Cl-2" value="user-id" style="ellipse;whiteSpace=wrap;html=1;" vertex="1" parent="1">
          <mxGeometry x="10" y="70" width="60" height="50" as="geometry" />
        </mxCell>
        <mxCell id="-0Hpn8DzHwPfNXD8N3Cl-3" value="name" style="ellipse;whiteSpace=wrap;html=1;" vertex="1" parent="1">
          <mxGeometry x="100" y="70" width="70" height="50" as="geometry" />
        </mxCell>
        <mxCell id="-0Hpn8DzHwPfNXD8N3Cl-4" value="e-mail" style="ellipse;whiteSpace=wrap;html=1;" vertex="1" parent="1">
          <mxGeometry x="190" y="70" width="80" height="60" as="geometry" />
        </mxCell>
        <mxCell id="-0Hpn8DzHwPfNXD8N3Cl-5" value="" style="endArrow=none;dashed=1;html=1;dashPattern=1 3;strokeWidth=2;rounded=0;" edge="1" parent="1">
          <mxGeometry width="50" height="50" relative="1" as="geometry">
            <mxPoint x="120" y="190" as="sourcePoint" />
            <mxPoint x="190" y="140" as="targetPoint" />
          </mxGeometry>
        </mxCell>
        <mxCell id="-0Hpn8DzHwPfNXD8N3Cl-6" value="" style="endArrow=none;dashed=1;html=1;dashPattern=1 3;strokeWidth=2;rounded=0;" edge="1" parent="1">
          <mxGeometry width="50" height="50" relative="1" as="geometry">
            <mxPoint x="100" y="180" as="sourcePoint" />
            <mxPoint x="140" y="130" as="targetPoint" />
          </mxGeometry>
        </mxCell>
        <mxCell id="-0Hpn8DzHwPfNXD8N3Cl-7" value="" style="endArrow=none;dashed=1;html=1;dashPattern=1 3;strokeWidth=2;rounded=0;" edge="1" parent="1">
          <mxGeometry width="50" height="50" relative="1" as="geometry">
            <mxPoint x="80" y="190" as="sourcePoint" />
            <mxPoint x="50" y="130" as="targetPoint" />
          </mxGeometry>
        </mxCell>
        <mxCell id="-0Hpn8DzHwPfNXD8N3Cl-8" value="user" style="rounded=0;whiteSpace=wrap;html=1;" vertex="1" parent="1">
          <mxGeometry x="30" y="180" width="120" height="60" as="geometry" />
        </mxCell>
        <mxCell id="-0Hpn8DzHwPfNXD8N3Cl-9" value="" style="endArrow=classic;html=1;rounded=0;" edge="1" parent="1">
          <mxGeometry width="50" height="50" relative="1" as="geometry">
            <mxPoint x="160" y="209.5" as="sourcePoint" />
            <mxPoint x="300" y="210" as="targetPoint" />
            <Array as="points">
              <mxPoint x="200" y="209.5" />
            </Array>
          </mxGeometry>
        </mxCell>
        <mxCell id="-0Hpn8DzHwPfNXD8N3Cl-10" value="one to many" style="rhombus;whiteSpace=wrap;html=1;" vertex="1" parent="1">
          <mxGeometry x="290" y="170" width="80" height="80" as="geometry" />
        </mxCell>
        <mxCell id="-0Hpn8DzHwPfNXD8N3Cl-11" value="" style="endArrow=classic;html=1;rounded=0;exitX=1;exitY=0.5;exitDx=0;exitDy=0;" edge="1" parent="1" source="-0Hpn8DzHwPfNXD8N3Cl-10" target="-0Hpn8DzHwPfNXD8N3Cl-12">
          <mxGeometry width="50" height="50" relative="1" as="geometry">
            <mxPoint x="430" y="240" as="sourcePoint" />
            <mxPoint x="480" y="210" as="targetPoint" />
          </mxGeometry>
        </mxCell>
        <mxCell id="-0Hpn8DzHwPfNXD8N3Cl-12" value="product list" style="rounded=0;whiteSpace=wrap;html=1;" vertex="1" parent="1">
          <mxGeometry x="420" y="180" width="120" height="60" as="geometry" />
        </mxCell>
        <mxCell id="-0Hpn8DzHwPfNXD8N3Cl-13" value="quantity&lt;div&gt;&lt;br&gt;&lt;/div&gt;" style="ellipse;whiteSpace=wrap;html=1;" vertex="1" parent="1">
          <mxGeometry x="340" y="55" width="96" height="80" as="geometry" />
        </mxCell>
        <mxCell id="-0Hpn8DzHwPfNXD8N3Cl-14" value="product name" style="ellipse;whiteSpace=wrap;html=1;" vertex="1" parent="1">
          <mxGeometry x="464" y="55" width="86" height="80" as="geometry" />
        </mxCell>
        <mxCell id="-0Hpn8DzHwPfNXD8N3Cl-15" value="product price" style="ellipse;whiteSpace=wrap;html=1;" vertex="1" parent="1">
          <mxGeometry x="560" y="55" width="90" height="80" as="geometry" />
        </mxCell>
        <mxCell id="-0Hpn8DzHwPfNXD8N3Cl-16" value="" style="endArrow=none;dashed=1;html=1;dashPattern=1 3;strokeWidth=2;rounded=0;" edge="1" parent="1">
          <mxGeometry width="50" height="50" relative="1" as="geometry">
            <mxPoint x="540" y="185" as="sourcePoint" />
            <mxPoint x="590" y="135" as="targetPoint" />
          </mxGeometry>
        </mxCell>
        <mxCell id="-0Hpn8DzHwPfNXD8N3Cl-17" value="" style="endArrow=none;dashed=1;html=1;dashPattern=1 3;strokeWidth=2;rounded=0;entryX=0.5;entryY=1;entryDx=0;entryDy=0;" edge="1" parent="1" target="-0Hpn8DzHwPfNXD8N3Cl-14">
          <mxGeometry width="50" height="50" relative="1" as="geometry">
            <mxPoint x="480" y="180" as="sourcePoint" />
            <mxPoint x="530" y="130" as="targetPoint" />
          </mxGeometry>
        </mxCell>
        <mxCell id="-0Hpn8DzHwPfNXD8N3Cl-18" value="" style="endArrow=none;dashed=1;html=1;dashPattern=1 3;strokeWidth=2;rounded=0;exitX=0.25;exitY=0;exitDx=0;exitDy=0;" edge="1" parent="1" source="-0Hpn8DzHwPfNXD8N3Cl-12" target="-0Hpn8DzHwPfNXD8N3Cl-13">
          <mxGeometry width="50" height="50" relative="1" as="geometry">
            <mxPoint x="400" y="180" as="sourcePoint" />
            <mxPoint x="450" y="130" as="targetPoint" />
          </mxGeometry>
        </mxCell>
        <mxCell id="-0Hpn8DzHwPfNXD8N3Cl-20" value="MANY TO MANY" style="rhombus;whiteSpace=wrap;html=1;" vertex="1" parent="1">
          <mxGeometry x="440" y="330" width="80" height="80" as="geometry" />
        </mxCell>
        <mxCell id="-0Hpn8DzHwPfNXD8N3Cl-23" value="payment" style="rounded=0;whiteSpace=wrap;html=1;" vertex="1" parent="1">
          <mxGeometry x="950" y="170" width="120" height="60" as="geometry" />
        </mxCell>
        <mxCell id="-0Hpn8DzHwPfNXD8N3Cl-24" value="payment method" style="ellipse;whiteSpace=wrap;html=1;" vertex="1" parent="1">
          <mxGeometry x="920" y="40" width="60" height="50" as="geometry" />
        </mxCell>
        <mxCell id="-0Hpn8DzHwPfNXD8N3Cl-25" value="pay-id" style="ellipse;whiteSpace=wrap;html=1;" vertex="1" parent="1">
          <mxGeometry x="1006" y="40" width="60" height="50" as="geometry" />
        </mxCell>
        <mxCell id="-0Hpn8DzHwPfNXD8N3Cl-26" value="amount" style="ellipse;whiteSpace=wrap;html=1;" vertex="1" parent="1">
          <mxGeometry x="1090" y="40" width="70" height="50" as="geometry" />
        </mxCell>
        <mxCell id="-0Hpn8DzHwPfNXD8N3Cl-27" value="" style="endArrow=none;dashed=1;html=1;dashPattern=1 3;strokeWidth=2;rounded=0;exitX=0.25;exitY=0;exitDx=0;exitDy=0;entryX=0.681;entryY=1.034;entryDx=0;entryDy=0;entryPerimeter=0;" edge="1" parent="1" source="-0Hpn8DzHwPfNXD8N3Cl-23" target="-0Hpn8DzHwPfNXD8N3Cl-24">
          <mxGeometry width="50" height="50" relative="1" as="geometry">
            <mxPoint x="660" y="160" as="sourcePoint" />
            <mxPoint x="710" y="110" as="targetPoint" />
          </mxGeometry>
        </mxCell>
        <mxCell id="-0Hpn8DzHwPfNXD8N3Cl-28" value="" style="endArrow=none;dashed=1;html=1;dashPattern=1 3;strokeWidth=2;rounded=0;entryX=0.657;entryY=0.006;entryDx=0;entryDy=0;entryPerimeter=0;exitX=0.5;exitY=1;exitDx=0;exitDy=0;" edge="1" parent="1" source="-0Hpn8DzHwPfNXD8N3Cl-25" target="-0Hpn8DzHwPfNXD8N3Cl-23">
          <mxGeometry width="50" height="50" relative="1" as="geometry">
            <mxPoint x="820" y="110" as="sourcePoint" />
            <mxPoint x="120" y="510" as="targetPoint" />
          </mxGeometry>
        </mxCell>
        <mxCell id="-0Hpn8DzHwPfNXD8N3Cl-29" value="" style="endArrow=none;dashed=1;html=1;dashPattern=1 3;strokeWidth=2;rounded=0;entryX=1;entryY=0;entryDx=0;entryDy=0;" edge="1" parent="1" target="-0Hpn8DzHwPfNXD8N3Cl-23">
          <mxGeometry width="50" height="50" relative="1" as="geometry">
            <mxPoint x="1120" y="100" as="sourcePoint" />
            <mxPoint x="230" y="500" as="targetPoint" />
          </mxGeometry>
        </mxCell>
        <mxCell id="-0Hpn8DzHwPfNXD8N3Cl-30" value="" style="endArrow=classic;html=1;rounded=0;exitX=0.25;exitY=1;exitDx=0;exitDy=0;" edge="1" parent="1">
          <mxGeometry width="50" height="50" relative="1" as="geometry">
            <mxPoint x="1028.5" y="208.6" as="sourcePoint" />
            <mxPoint x="1031.0964912280701" y="280.0035087719298" as="targetPoint" />
            <Array as="points">
              <mxPoint x="1031.5" y="238.6" />
            </Array>
          </mxGeometry>
        </mxCell>
        <mxCell id="-0Hpn8DzHwPfNXD8N3Cl-31" value="one to many" style="rhombus;whiteSpace=wrap;html=1;" vertex="1" parent="1">
          <mxGeometry x="990" y="280" width="80" height="80" as="geometry" />
        </mxCell>
        <mxCell id="-0Hpn8DzHwPfNXD8N3Cl-32" value="" style="endArrow=classic;html=1;rounded=0;exitX=0.5;exitY=1;exitDx=0;exitDy=0;" edge="1" parent="1" source="-0Hpn8DzHwPfNXD8N3Cl-31" target="-0Hpn8DzHwPfNXD8N3Cl-33">
          <mxGeometry width="50" height="50" relative="1" as="geometry">
            <mxPoint x="390" y="370" as="sourcePoint" />
            <mxPoint x="450" y="430" as="targetPoint" />
          </mxGeometry>
        </mxCell>
        <mxCell id="-0Hpn8DzHwPfNXD8N3Cl-33" value="tracking order" style="rounded=0;whiteSpace=wrap;html=1;" vertex="1" parent="1">
          <mxGeometry x="990" y="410" width="120" height="60" as="geometry" />
        </mxCell>
        <mxCell id="-0Hpn8DzHwPfNXD8N3Cl-35" value="status" style="ellipse;whiteSpace=wrap;html=1;" vertex="1" parent="1">
          <mxGeometry x="950" y="560" width="76" height="80" as="geometry" />
        </mxCell>
        <mxCell id="-0Hpn8DzHwPfNXD8N3Cl-36" value="track id" style="ellipse;whiteSpace=wrap;html=1;" vertex="1" parent="1">
          <mxGeometry x="1066" y="560" width="76" height="80" as="geometry" />
        </mxCell>
        <mxCell id="-0Hpn8DzHwPfNXD8N3Cl-37" value="date&amp;nbsp;" style="ellipse;whiteSpace=wrap;html=1;" vertex="1" parent="1">
          <mxGeometry x="1190" y="550" width="76" height="80" as="geometry" />
        </mxCell>
        <mxCell id="-0Hpn8DzHwPfNXD8N3Cl-38" value="" style="endArrow=none;dashed=1;html=1;dashPattern=1 3;strokeWidth=2;rounded=0;exitX=0.674;exitY=-0.015;exitDx=0;exitDy=0;exitPerimeter=0;entryX=0.25;entryY=1;entryDx=0;entryDy=0;" edge="1" parent="1" source="-0Hpn8DzHwPfNXD8N3Cl-35" target="-0Hpn8DzHwPfNXD8N3Cl-33">
          <mxGeometry width="50" height="50" relative="1" as="geometry">
            <mxPoint x="370" y="530" as="sourcePoint" />
            <mxPoint x="410" y="500" as="targetPoint" />
          </mxGeometry>
        </mxCell>
        <mxCell id="-0Hpn8DzHwPfNXD8N3Cl-39" value="" style="endArrow=none;dashed=1;html=1;dashPattern=1 3;strokeWidth=2;rounded=0;exitX=1;exitY=1;exitDx=0;exitDy=0;entryX=0;entryY=0;entryDx=0;entryDy=0;" edge="1" parent="1" source="-0Hpn8DzHwPfNXD8N3Cl-33" target="-0Hpn8DzHwPfNXD8N3Cl-37">
          <mxGeometry width="50" height="50" relative="1" as="geometry">
            <mxPoint x="550" y="470" as="sourcePoint" />
            <mxPoint x="600" y="420" as="targetPoint" />
          </mxGeometry>
        </mxCell>
        <mxCell id="-0Hpn8DzHwPfNXD8N3Cl-40" value="" style="endArrow=none;dashed=1;html=1;dashPattern=1 3;strokeWidth=2;rounded=0;exitX=0.5;exitY=1;exitDx=0;exitDy=0;entryX=0.311;entryY=0.035;entryDx=0;entryDy=0;entryPerimeter=0;" edge="1" parent="1" source="-0Hpn8DzHwPfNXD8N3Cl-33" target="-0Hpn8DzHwPfNXD8N3Cl-36">
          <mxGeometry width="50" height="50" relative="1" as="geometry">
            <mxPoint x="390" y="360" as="sourcePoint" />
            <mxPoint x="440" y="310" as="targetPoint" />
          </mxGeometry>
        </mxCell>
        <mxCell id="-0Hpn8DzHwPfNXD8N3Cl-43" value="" style="endArrow=classic;html=1;rounded=0;" edge="1" parent="1">
          <mxGeometry width="50" height="50" relative="1" as="geometry">
            <mxPoint x="535" y="209.41" as="sourcePoint" />
            <mxPoint x="600" y="210" as="targetPoint" />
            <Array as="points">
              <mxPoint x="575" y="209.41" />
            </Array>
          </mxGeometry>
        </mxCell>
        <mxCell id="-0Hpn8DzHwPfNXD8N3Cl-44" value="one to one&lt;div&gt;&lt;br&gt;&lt;/div&gt;" style="rhombus;whiteSpace=wrap;html=1;" vertex="1" parent="1">
          <mxGeometry x="610" y="170" width="80" height="80" as="geometry" />
        </mxCell>
        <mxCell id="-0Hpn8DzHwPfNXD8N3Cl-48" value="" style="endArrow=classic;html=1;rounded=0;exitX=1;exitY=0.5;exitDx=0;exitDy=0;" edge="1" parent="1" source="-0Hpn8DzHwPfNXD8N3Cl-44">
          <mxGeometry width="50" height="50" relative="1" as="geometry">
            <mxPoint x="680" y="270" as="sourcePoint" />
            <mxPoint x="740" y="210" as="targetPoint" />
          </mxGeometry>
        </mxCell>
        <mxCell id="-0Hpn8DzHwPfNXD8N3Cl-49" value="" style="endArrow=classic;html=1;rounded=0;exitX=0.5;exitY=1;exitDx=0;exitDy=0;" edge="1" parent="1" source="-0Hpn8DzHwPfNXD8N3Cl-12">
          <mxGeometry width="50" height="50" relative="1" as="geometry">
            <mxPoint x="450" y="350" as="sourcePoint" />
            <mxPoint x="480" y="320" as="targetPoint" />
          </mxGeometry>
        </mxCell>
        <mxCell id="-0Hpn8DzHwPfNXD8N3Cl-51" value="" style="endArrow=classic;html=1;rounded=0;exitX=0.5;exitY=1;exitDx=0;exitDy=0;" edge="1" parent="1">
          <mxGeometry width="50" height="50" relative="1" as="geometry">
            <mxPoint x="479.41" y="410" as="sourcePoint" />
            <mxPoint x="479.41" y="490" as="targetPoint" />
          </mxGeometry>
        </mxCell>
        <mxCell id="-0Hpn8DzHwPfNXD8N3Cl-52" value="SELLER" style="rounded=0;whiteSpace=wrap;html=1;" vertex="1" parent="1">
          <mxGeometry x="400" y="485" width="120" height="60" as="geometry" />
        </mxCell>
        <mxCell id="-0Hpn8DzHwPfNXD8N3Cl-53" value="" style="endArrow=none;dashed=1;html=1;dashPattern=1 3;strokeWidth=2;rounded=0;" edge="1" parent="1">
          <mxGeometry width="50" height="50" relative="1" as="geometry">
            <mxPoint x="390" y="600" as="sourcePoint" />
            <mxPoint x="400" y="550" as="targetPoint" />
          </mxGeometry>
        </mxCell>
        <mxCell id="-0Hpn8DzHwPfNXD8N3Cl-54" value="" style="endArrow=none;dashed=1;html=1;dashPattern=1 3;strokeWidth=2;rounded=0;" edge="1" parent="1">
          <mxGeometry width="50" height="50" relative="1" as="geometry">
            <mxPoint x="470" y="620" as="sourcePoint" />
            <mxPoint x="470" y="550" as="targetPoint" />
          </mxGeometry>
        </mxCell>
        <mxCell id="-0Hpn8DzHwPfNXD8N3Cl-55" value="" style="endArrow=none;dashed=1;html=1;dashPattern=1 3;strokeWidth=2;rounded=0;" edge="1" parent="1">
          <mxGeometry width="50" height="50" relative="1" as="geometry">
            <mxPoint x="530" y="620" as="sourcePoint" />
            <mxPoint x="520" y="550" as="targetPoint" />
          </mxGeometry>
        </mxCell>
        <mxCell id="-0Hpn8DzHwPfNXD8N3Cl-58" value="product name" style="ellipse;whiteSpace=wrap;html=1;" vertex="1" parent="1">
          <mxGeometry x="280" y="585" width="106" height="80" as="geometry" />
        </mxCell>
        <mxCell id="-0Hpn8DzHwPfNXD8N3Cl-59" value="&lt;div&gt;seller no&lt;/div&gt;&lt;div&gt;&lt;br&gt;&lt;/div&gt;" style="ellipse;whiteSpace=wrap;html=1;" vertex="1" parent="1">
          <mxGeometry x="520" y="610" width="100" height="80" as="geometry" />
        </mxCell>
        <mxCell id="-0Hpn8DzHwPfNXD8N3Cl-60" value="seller address" style="ellipse;whiteSpace=wrap;html=1;" vertex="1" parent="1">
          <mxGeometry x="410" y="610" width="96" height="80" as="geometry" />
        </mxCell>
        <mxCell id="-0Hpn8DzHwPfNXD8N3Cl-62" value="order" style="rounded=0;whiteSpace=wrap;html=1;" vertex="1" parent="1">
          <mxGeometry x="740" y="180" width="120" height="60" as="geometry" />
        </mxCell>
        <mxCell id="-0Hpn8DzHwPfNXD8N3Cl-63" value="" style="endArrow=classic;html=1;rounded=0;" edge="1" parent="1">
          <mxGeometry width="50" height="50" relative="1" as="geometry">
            <mxPoint x="870" y="209.29" as="sourcePoint" />
            <mxPoint x="940" y="209.29" as="targetPoint" />
          </mxGeometry>
        </mxCell>
        <mxCell id="-0Hpn8DzHwPfNXD8N3Cl-64" value="" style="endArrow=none;dashed=1;html=1;dashPattern=1 3;strokeWidth=2;rounded=0;" edge="1" parent="1">
          <mxGeometry width="50" height="50" relative="1" as="geometry">
            <mxPoint x="799.29" y="170" as="sourcePoint" />
            <mxPoint x="799.29" y="100" as="targetPoint" />
          </mxGeometry>
        </mxCell>
        <mxCell id="-0Hpn8DzHwPfNXD8N3Cl-65" value="" style="endArrow=none;dashed=1;html=1;dashPattern=1 3;strokeWidth=2;rounded=0;" edge="1" parent="1">
          <mxGeometry width="50" height="50" relative="1" as="geometry">
            <mxPoint x="860" y="190" as="sourcePoint" />
            <mxPoint x="860" y="120" as="targetPoint" />
          </mxGeometry>
        </mxCell>
        <mxCell id="-0Hpn8DzHwPfNXD8N3Cl-66" value="" style="endArrow=none;dashed=1;html=1;dashPattern=1 3;strokeWidth=2;rounded=0;" edge="1" parent="1">
          <mxGeometry width="50" height="50" relative="1" as="geometry">
            <mxPoint x="740" y="180" as="sourcePoint" />
            <mxPoint x="740" y="110" as="targetPoint" />
          </mxGeometry>
        </mxCell>
        <mxCell id="-0Hpn8DzHwPfNXD8N3Cl-67" value="name" style="ellipse;whiteSpace=wrap;html=1;" vertex="1" parent="1">
          <mxGeometry x="834" y="50" width="86" height="80" as="geometry" />
        </mxCell>
        <mxCell id="-0Hpn8DzHwPfNXD8N3Cl-68" value="order id" style="ellipse;whiteSpace=wrap;html=1;" vertex="1" parent="1">
          <mxGeometry x="748" y="-10" width="86" height="80" as="geometry" />
        </mxCell>
        <mxCell id="-0Hpn8DzHwPfNXD8N3Cl-69" value="quantity" style="ellipse;whiteSpace=wrap;html=1;" vertex="1" parent="1">
          <mxGeometry x="670" y="50" width="86" height="80" as="geometry" />
        </mxCell>
      </root>
    </mxGraphModel>
  </diagram>
</mxfile>
